<svg id="Layer_1" data-name="Layer 1" xmlns="http://www.w3.org/2000/svg" viewBox="0 0 792 310.52"><defs><style>.cls-1{font-size:12.54px;fill:#010101;font-family:FreightTextProBook-Regular, FreightText Pro;}.cls-2{letter-spacing:-0.03em;}.cls-3{letter-spacing:0em;}.cls-4{letter-spacing:-0.02em;}.cls-5{letter-spacing:0em;}.cls-6{letter-spacing:0em;}.cls-7{letter-spacing:0em;}.cls-8{letter-spacing:0em;}.cls-9{letter-spacing:0em;}.cls-10{letter-spacing:0em;}.cls-11{letter-spacing:-0.01em;}.cls-12{letter-spacing:-0.16em;}.cls-13,.cls-14{fill:none;stroke:#010101;stroke-miterlimit:10;}.cls-13{stroke-width:0.25px;}.cls-14{stroke-width:0.15px;}</style></defs><title>Artboard 2</title><text class="cls-1" transform="translate(352.7 16.24)">Sign in</text><text class="cls-1" transform="translate(185.9 112.01)"><tspan class="cls-2">T</tspan><tspan class="cls-3" x="7.3" y="0">r</tspan><tspan x="11.93" y="0">ack p</tspan><tspan class="cls-3" x="38.58" y="0">r</tspan><tspan x="43.2" y="0">og</tspan><tspan class="cls-3" x="55.46" y="0">r</tspan><tspan x="60.08" y="0">ess</tspan></text><text class="cls-1" transform="translate(349.48 112.01)"><tspan class="cls-4">M</tspan><tspan x="10.33" y="0">eals</tspan></text><text class="cls-1" transform="translate(185.9 157.84)"><tspan class="cls-5">R</tspan><tspan class="cls-6" x="7.37" y="0">e</tspan><tspan class="cls-7" x="13.14" y="0">vi</tspan><tspan class="cls-8" x="22.25" y="0">e</tspan><tspan x="28.02" y="0">w plan</tspan></text><text class="cls-1" transform="translate(185.9 203.84)">Log <tspan class="cls-4" x="22.2" y="0">M</tspan><tspan x="32.53" y="0">eal</tspan></text><text class="cls-1" transform="translate(349.48 296.01)">Log <tspan class="cls-4" x="22.2" y="0">M</tspan><tspan x="32.53" y="0">eal</tspan></text><text class="cls-1" transform="translate(349.01 244.24)">Select <tspan class="cls-9" x="33.84" y="0">r</tspan><tspan class="cls-10" x="38.46" y="0">ecipe</tspan></text><text class="cls-1" transform="translate(349.48 203.67)">C<tspan class="cls-3" x="8.33" y="0">r</tspan><tspan x="12.96" y="0">ea</tspan><tspan class="cls-11" x="24.28" y="0">t</tspan><tspan x="28.46" y="0">e </tspan><tspan class="cls-3" x="37.05" y="0">r</tspan><tspan x="41.67" y="0">ecipe</tspan></text><text class="cls-1" transform="translate(349.01 157.84)">Select ing<tspan class="cls-3" x="49.72" y="0">r</tspan><tspan x="54.35" y="0">edi</tspan><tspan class="cls-8" x="70.02" y="0">e</tspan><tspan x="75.78" y="0">nts</tspan></text><text class="cls-1" transform="translate(519.48 112.01)">Plan</text><text class="cls-1" transform="translate(519.48 157.84)"><tspan class="cls-5">U</tspan><tspan x="8.88" y="0">pda</tspan><tspan class="cls-11" x="27.64" y="0">t</tspan><tspan x="31.82" y="0">e information</tspan></text><text class="cls-1" transform="translate(519.48 203.67)">Start n<tspan class="cls-8" x="34.81" y="0">e</tspan><tspan x="40.58" y="0">w plan</tspan><tspan class="cls-12" x="74.41" y="0">	</tspan></text><text class="cls-1" transform="translate(519.48 249.51)">Set goals</text><text class="cls-1" transform="translate(519.48 296.01)">Set plan du<tspan class="cls-9" x="57.58" y="0">r</tspan><tspan class="cls-10" x="62.2" y="0">ation</tspan></text><polyline class="cls-13" points="218.14 59.57 534.18 59.57 534.18 90.52"/><line class="cls-13" x1="218.09" y1="119.44" x2="218.09" y2="142.44"/><line class="cls-13" x1="371.45" y1="119.44" x2="371.45" y2="142.44"/><line class="cls-13" x1="534.18" y1="119.44" x2="534.18" y2="142.44"/><line class="cls-13" x1="534.18" y1="165.44" x2="534.18" y2="188.44"/><line class="cls-13" x1="534.18" y1="210.13" x2="534.18" y2="233.13"/><line class="cls-13" x1="534.18" y1="258.54" x2="534.18" y2="281.54"/><line class="cls-13" x1="371.45" y1="165.44" x2="371.45" y2="188.44"/><line class="cls-13" x1="371.45" y1="210.13" x2="371.45" y2="233.13"/><line class="cls-13" x1="371.45" y1="255.51" x2="371.45" y2="278.51"/><line class="cls-13" x1="218.14" y1="165.44" x2="218.14" y2="188.44"/><line class="cls-14" x1="218.14" y1="59.57" x2="218.14" y2="90.52"/><line class="cls-14" x1="368.08" y1="59.57" x2="368.08" y2="90.52"/><line class="cls-14" x1="368.08" y1="28.57" x2="368.08" y2="59.52"/></svg>