<?xml version="1.0" encoding="utf-8"?>
<!-- Generator: Adobe Illustrator 22.1.0, SVG Export Plug-In . SVG Version: 6.00 Build 0)  -->
<svg version="1.1" id="Layer_1" xmlns="http://www.w3.org/2000/svg" xmlns:xlink="http://www.w3.org/1999/xlink" x="0px" y="0px"
	 viewBox="0 0 314 410" style="enable-background:new 0 0 314 410;" xml:space="preserve">
<style type="text/css">
	.st0{font-family:'Avenir-Book';}
	.st1{font-size:12px;}
	.st2{fill:#202020;}
</style>
<text transform="matrix(1 0 0 1 129.764 70.9456)" class="st0 st1">Login</text>
<text transform="matrix(1 0 0 1 96.988 120.1307)" class="st0 st1">Select “MEAL”</text>
<text transform="matrix(1 0 0 1 103.1593 178.6756)" class="st0 st1">Select “ Save new recipe”</text>
<text transform="matrix(1 0 0 1 103.1592 235.4405)" class="st0 st1">Enter  recipe name</text>
<text transform="matrix(1 0 0 1 99.1191 290.7737)" class="st0 st1">Select ingredients</text>
<text transform="matrix(1 0 0 1 113.1592 353.0098)" class="st0 st1">CONFIRM </text>
<g>
	<g>
		<g>
			<polygon class="st2" points="141.7,79.7 141.7,103.3 140,103.3 141.9,106.7 143.9,103.3 142.2,103.3 142.2,79.7 			"/>
		</g>
	</g>
</g>
<g>
	<g>
		<g>
			<polygon class="st2" points="141.7,130.7 141.7,154.3 140,154.3 141.9,157.7 143.9,154.3 142.2,154.3 142.2,130.7 			"/>
		</g>
	</g>
</g>
<g>
	<g>
		<g>
			<polygon class="st2" points="141.7,189.3 141.7,219.7 140,219.7 141.9,223.1 143.9,219.7 142.2,219.7 142.2,189.3 			"/>
		</g>
	</g>
</g>
<g>
	<g>
		<g>
			<polygon class="st2" points="141.7,308.3 141.7,335.1 140,335.1 141.9,338.5 143.9,335.1 142.2,335.1 142.2,308.3 			"/>
		</g>
	</g>
</g>
</svg>
