<svg id="Layer_1" data-name="Layer 1" xmlns="http://www.w3.org/2000/svg" viewBox="0 0 265.33 387.2"><defs><style>.cls-1{font-size:12px;font-family:Avenir-Book, Avenir;}.cls-2{letter-spacing:-0.02em;}.cls-3{letter-spacing:0em;}.cls-4{letter-spacing:0em;}.cls-5{fill:#202020;}.cls-6{fill:none;stroke:#000;stroke-miterlimit:10;stroke-width:0.25px;}</style></defs><title>CC-TF2</title><text class="cls-1" transform="translate(106.09 10.25)">Login</text><text class="cls-1" transform="translate(73.32 59.43)">Check p<tspan class="cls-2" x="44.03" y="0">r</tspan><tspan x="47.8" y="0">og</tspan><tspan class="cls-2" x="62.24" y="0">r</tspan><tspan class="cls-3" x="66.01" y="0">ess</tspan></text><text class="cls-1" transform="translate(79.49 117.98)"><tspan class="cls-2">r</tspan><tspan x="3.77" y="0">eview plan</tspan></text><text class="cls-1" transform="translate(0 209.31)">Start new plan</text><text class="cls-1" transform="translate(160.67 207.2)">Modify cur<tspan class="cls-2" x="57.12" y="0">r</tspan><tspan class="cls-4" x="60.89" y="0">ent plan</tspan></text><text class="cls-1" transform="translate(79.49 292.31)">enter cur<tspan class="cls-2" x="47.76" y="0">r</tspan><tspan x="51.53" y="0">ent weight</tspan></text><text class="cls-1" transform="translate(79.28 339.35)">enter desi<tspan class="cls-2" x="53.32" y="0">r</tspan><tspan x="57.08" y="0">ed weight</tspan></text><text class="cls-1" transform="translate(79.49 383.74)">enter plan duration</text><polygon class="cls-5" points="118.03 18.98 118.03 42.56 116.29 42.56 118.27 45.98 120.24 42.56 118.5 42.56 118.5 18.98 118.03 18.98"/><polygon class="cls-5" points="118.03 69.98 118.03 93.56 116.29 93.56 118.27 96.98 120.24 93.56 118.5 93.56 118.5 69.98 118.03 69.98"/><polygon class="cls-5" points="118.03 128.65 118.03 158.96 116.29 158.96 118.27 162.37 120.24 158.96 118.5 158.96 118.5 128.65 118.03 128.65"/><polygon class="cls-5" points="118.03 247.56 118.03 274.39 116.29 274.39 118.27 277.81 120.24 274.39 118.5 274.39 118.5 247.56 118.03 247.56"/><polygon class="cls-5" points="118.03 299.45 118.03 323.02 116.29 323.02 118.27 326.44 120.24 323.02 118.5 323.02 118.5 299.45 118.03 299.45"/><polygon class="cls-5" points="118.03 343.73 118.03 367.3 116.29 367.3 118.27 370.72 120.24 367.3 118.5 367.3 118.5 343.73 118.03 343.73"/><polyline class="cls-6" points="204.11 162.37 37.1 162.37 37.1 188.86"/><polyline class="cls-6" points="37.1 162.37 204.11 162.37 204.11 188.86"/><polyline class="cls-6" points="204.11 247.86 37.1 247.86 37.1 221.37"/><polyline class="cls-6" points="37.1 247.86 204.11 247.86 204.11 221.37"/></svg>