<svg id="Layer_1" data-name="Layer 1" xmlns="http://www.w3.org/2000/svg" viewBox="0 0 271.83 394.2"><defs><style>.cls-1{font-size:12px;font-family:Avenir-Book, Avenir;}.cls-2{letter-spacing:-0.02em;}.cls-3{letter-spacing:-0.02em;}.cls-4{letter-spacing:0em;}.cls-5{letter-spacing:0.02em;}.cls-6{letter-spacing:0.01em;}.cls-7{fill:#202020;}.cls-8{fill:none;stroke:#000;stroke-miterlimit:10;stroke-width:0.25px;}</style></defs><title>CC-TF1</title><text class="cls-1" transform="translate(130.49 10.25)">Login</text><text class="cls-1" transform="translate(0 95.14)">Select “LOG MEAL”</text><text class="cls-1" transform="translate(181.34 90.44)">Select “MEALS” <tspan x="0" y="14.4">f</tspan><tspan class="cls-2" x="3.55" y="14.4">r</tspan><tspan x="7.32" y="14.4">om menu</tspan></text><text class="cls-1" transform="translate(0 214.97)">Select Recipe name</text><text class="cls-1" transform="translate(175.7 214.97)">Select ing<tspan class="cls-2" x="52.88" y="0">r</tspan><tspan x="56.65" y="0">edients</tspan></text><text class="cls-1" transform="translate(62.53 299.82)">Check calorie b<tspan class="cls-3" x="82.91" y="0">r</tspan><tspan class="cls-4" x="86.67" y="0">eakdown</tspan></text><text class="cls-1" transform="translate(62.53 345.1)">confi<tspan class="cls-5" x="26" y="0">r</tspan><tspan class="cls-4" x="30.2" y="0">m and LOG MEAL</tspan></text><text class="cls-1" transform="translate(62.53 390.75)"><tspan class="cls-6">V</tspan><tspan x="7.4" y="0">iew the updated Calorie count</tspan></text><polygon class="cls-7" points="139.13 18.98 139.13 42.56 137.39 42.56 139.36 45.98 141.34 42.56 139.6 42.56 139.6 18.98 139.13 18.98"/><polygon class="cls-7" points="139.13 141.68 139.13 165.26 137.39 165.26 139.36 168.68 141.34 165.26 139.6 165.26 139.6 141.68 139.13 141.68"/><polygon class="cls-7" points="139.13 252.95 139.13 276.53 137.39 276.53 139.36 279.95 141.34 276.53 139.6 276.53 139.6 252.95 139.13 252.95"/><polygon class="cls-7" points="139.13 304.95 139.13 328.53 137.39 328.53 139.36 331.95 141.34 328.53 139.6 328.53 139.6 304.95 139.13 304.95"/><polygon class="cls-7" points="139.13 351.95 139.13 375.53 137.39 375.53 139.36 378.95 141.34 375.53 139.6 375.53 139.6 351.95 139.13 351.95"/><polyline class="cls-8" points="52.77 71.84 52.77 45.98 209.68 45.98 52.77 45.98 199.93 45.98"/><polyline class="cls-8" points="209.68 71.84 209.68 45.98 52.77 45.98 209.68 45.98 62.53 45.98"/><polyline class="cls-8" points="52.77 194.54 52.77 168.68 209.68 168.68 52.77 168.68 199.93 168.68"/><polyline class="cls-8" points="209.68 194.54 209.68 168.68 52.77 168.68 209.68 168.68 62.53 168.68"/><polyline class="cls-8" points="52.77 224.54 52.77 250.4 209.68 250.4 52.77 250.4 199.93 250.4"/><polyline class="cls-8" points="209.68 224.54 209.68 250.4 52.77 250.4 209.68 250.4 62.53 250.4"/><polyline class="cls-8" points="52.77 113.98 52.77 139.84 209.68 139.84 52.77 139.84 199.93 139.84"/><polyline class="cls-8" points="209.68 113.98 209.68 139.84 52.77 139.84 209.68 139.84 62.53 139.84"/></svg>