<svg id="Layer_1" data-name="Layer 1" xmlns="http://www.w3.org/2000/svg" viewBox="0 0 792 361.51"><defs><style>.cls-1,.cls-2{font-size:12.54px;font-family:FreightTextProBook-Regular, FreightText Pro;}.cls-1,.cls-13,.cls-2{fill:#010101;}.cls-2{letter-spacing:0.01em;}.cls-3{letter-spacing:0em;}.cls-4{letter-spacing:-0.01em;}.cls-5{letter-spacing:-0.01em;}.cls-6{letter-spacing:0em;}.cls-7{letter-spacing:0em;}.cls-8{letter-spacing:-0.01em;}.cls-9{letter-spacing:0em;}.cls-10{letter-spacing:-0.02em;}.cls-11{letter-spacing:0em;}.cls-12{fill:none;stroke:#010101;stroke-miterlimit:10;stroke-width:0.25px;}</style></defs><title>Artboard 1</title><text class="cls-1" transform="translate(382.81 15.08)">Sign in</text><text class="cls-2" transform="translate(180.84 93.21)">D<tspan class="cls-3" x="8.59" y="0">estination 1</tspan></text><text class="cls-1" transform="translate(180.84 167.26)">Cus<tspan class="cls-4" x="19.97" y="0">t</tspan><tspan class="cls-3" x="24.14" y="0">omise plan</tspan></text><text class="cls-1" transform="translate(330.84 167.26)">Cus<tspan class="cls-4" x="19.97" y="0">t</tspan><tspan class="cls-3" x="24.14" y="0">omize flight details </tspan></text><text class="cls-1" transform="translate(330.84 207.26)">Cus<tspan class="cls-4" x="19.97" y="0">t</tspan><tspan class="cls-3" x="24.14" y="0">omize ho</tspan><tspan class="cls-5" x="71.43" y="0">t</tspan><tspan x="75.61" y="0">el accomodation</tspan></text><text class="cls-1" transform="translate(330.84 237.26)">Select <tspan class="cls-6" x="33.84" y="0">e</tspan><tspan x="39.6" y="0">v</tspan><tspan class="cls-6" x="45.37" y="0">e</tspan><tspan class="cls-7" x="51.14" y="0">nts </tspan><tspan class="cls-4" x="70.14" y="0">t</tspan><tspan class="cls-3" x="74.32" y="0">o add</tspan></text><text class="cls-1" transform="translate(180.84 227.26)"><tspan class="cls-8">F</tspan><tspan x="6.91" y="0">ind </tspan><tspan class="cls-6" x="26.5" y="0">e</tspan><tspan x="32.27" y="0">v</tspan><tspan class="cls-6" x="38.04" y="0">e</tspan><tspan x="43.81" y="0">nts</tspan></text><text class="cls-1" transform="translate(180.84 287.26)"><tspan class="cls-8">F</tspan><tspan x="6.91" y="0">ind t</tspan><tspan class="cls-9" x="30.8" y="0">r</tspan><tspan class="cls-5" x="35.43" y="0">a</tspan><tspan class="cls-7" x="40.9" y="0">vel buddy</tspan></text><text class="cls-1" transform="translate(180.84 347.26)">Vi<tspan class="cls-6" x="11.04" y="0">e</tspan><tspan x="16.8" y="0">w image gall</tspan><tspan class="cls-6" x="79.77" y="0">e</tspan><tspan x="85.54" y="0">ry</tspan></text><text class="cls-2" transform="translate(360.37 93.21)">D<tspan class="cls-3" x="8.59" y="0">estination 2</tspan></text><text class="cls-2" transform="translate(540.84 93.21)">D<tspan class="cls-3" x="8.59" y="0">estination 3</tspan></text><text class="cls-1" transform="translate(331.84 272.83)">Vi<tspan class="cls-6" x="11.04" y="0">e</tspan><tspan x="16.8" y="0">w p</tspan><tspan class="cls-9" x="34.89" y="0">r</tspan><tspan x="39.52" y="0">ofile</tspan></text><text class="cls-1" transform="translate(330.84 301.83)"><tspan class="cls-10">M</tspan><tspan x="10.33" y="0">essage / Contact</tspan></text><text class="cls-1" transform="translate(330.84 347.26)">Vi<tspan class="cls-6" x="11.04" y="0">e</tspan><tspan x="16.8" y="0">w </tspan><tspan class="cls-9" x="28.32" y="0">r</tspan><tspan class="cls-6" x="32.95" y="0">e</tspan><tspan class="cls-7" x="38.71" y="0">vi</tspan><tspan class="cls-6" x="47.82" y="0">e</tspan><tspan x="53.59" y="0">ws</tspan></text><text class="cls-1" transform="translate(570.84 167.26)">Book</text><text class="cls-1" transform="translate(570.84 287.26)">En<tspan class="cls-4" x="14.11" y="0">t</tspan><tspan class="cls-6" x="18.28" y="0">e</tspan><tspan class="cls-3" x="24.05" y="0">r p</tspan><tspan class="cls-4" x="38.12" y="0">a</tspan><tspan class="cls-3" x="43.59" y="0">ym</tspan><tspan class="cls-11" x="59.39" y="0">e</tspan><tspan class="cls-7" x="65.16" y="0">nt</tspan><tspan x="0" y="15.05">info</tspan></text><text class="cls-1" transform="translate(570.84 227.26)">Confirm details</text><line class="cls-12" x1="142.55" y1="163.26" x2="142.55" y2="343.9"/><line class="cls-12" x1="210.39" y1="57.3" x2="210.39" y2="79.84"/><line class="cls-12" x1="210.39" y1="57.3" x2="584.05" y2="57.3"/><polyline class="cls-12" points="207.98 121.78 586.93 121.78 586.93 152.73"/><line class="cls-12" x1="584.05" y1="57.3" x2="584.05" y2="79.84"/><line class="cls-12" x1="399.54" y1="57.3" x2="399.54" y2="79.84"/><line class="cls-12" x1="399.54" y1="99.23" x2="399.54" y2="121.78"/><line class="cls-12" x1="399.54" y1="34.3" x2="399.54" y2="56.84"/><line class="cls-12" x1="142.55" y1="163.26" x2="177.36" y2="163.26"/><line class="cls-12" x1="142.55" y1="223.01" x2="177.36" y2="223.01"/><line class="cls-12" x1="289.05" y1="297.51" x2="323.86" y2="297.51"/><line class="cls-12" x1="289.66" y1="343.9" x2="324.46" y2="343.9"/><line class="cls-12" x1="142.55" y1="283.45" x2="177.36" y2="283.45"/><line class="cls-12" x1="289.05" y1="269.01" x2="323.86" y2="269.01"/><line class="cls-12" x1="274.6" y1="283.45" x2="289.05" y2="283.45"/><line class="cls-12" x1="289.66" y1="205.01" x2="324.46" y2="205.01"/><line class="cls-12" x1="265.96" y1="163.26" x2="324.46" y2="163.26"/><line class="cls-12" x1="458.31" y1="163.26" x2="525.22" y2="163.26"/><line class="cls-12" x1="497.93" y1="205.01" x2="525.22" y2="205.01"/><line class="cls-12" x1="447.92" y1="233.51" x2="525.22" y2="233.51"/><line class="cls-12" x1="289.66" y1="233.51" x2="324.46" y2="233.51"/><line class="cls-12" x1="142.55" y1="343.9" x2="177.36" y2="343.9"/><line class="cls-12" x1="289.66" y1="205.01" x2="289.66" y2="163.26"/><line class="cls-12" x1="525.22" y1="205.01" x2="525.22" y2="163.26"/><line class="cls-12" x1="584.05" y1="212.63" x2="584.05" y2="170.89"/><line class="cls-12" x1="584.05" y1="274.45" x2="584.05" y2="232.71"/><line class="cls-12" x1="525.22" y1="233.51" x2="525.22" y2="191.76"/><line class="cls-12" x1="288.66" y1="297.51" x2="288.66" y2="269.23"/><line class="cls-12" x1="567.88" y1="163.26" x2="525.22" y2="163.26"/><polygon class="cls-13" points="586.7 121.78 586.7 155.02 584.96 155.02 586.93 158.44 588.91 155.02 587.17 155.02 587.17 121.78 586.7 121.78"/><polygon class="cls-13" points="207.69 121.78 207.69 155.02 205.96 155.02 207.93 158.44 209.91 155.02 208.17 155.02 208.17 121.78 207.69 121.78"/></svg>