<?xml version="1.0" encoding="utf-8"?>
<!-- Generator: Adobe Illustrator 22.1.0, SVG Export Plug-In . SVG Version: 6.00 Build 0)  -->
<svg version="1.1" id="Layer_1" xmlns="http://www.w3.org/2000/svg" xmlns:xlink="http://www.w3.org/1999/xlink" x="0px" y="0px"
	 viewBox="0 0 90.4 364.5" style="enable-background:new 0 0 90.4 364.5;" xml:space="preserve">
<style type="text/css">
	.st0{fill:#020202;}
	.st1{font-family:'Avenir-Book';}
	.st2{font-size:5.9548px;}
</style>
<text transform="matrix(1 0 0 1 33.8984 14.9895)" class="st0 st1 st2">Login</text>
<text transform="matrix(1 0 0 1 14.6845 62.6917)" class="st0 st1 st2">Select destination </text>
<text transform="matrix(1 0 0 1 22.414 115.1697)" class="st0 st1 st2">View list of </text>
<text transform="matrix(1 0 0 1 22.414 124.1019)" class="st0 st1 st2">fellow travellers</text>
<text transform="matrix(1 0 0 1 22.414 133.034)" class="st0 st1 st2">in the region</text>
<text transform="matrix(1 0 0 1 22.1464 204.7386)" class="st0 st1 st2">Choose a  </text>
<text transform="matrix(1 0 0 1 22.1464 213.6707)" class="st0 st1 st2">person to get </text>
<text transform="matrix(1 0 0 1 23.3876 222.6028)" class="st0 st1 st2">in</text>
<text transform="matrix(1 0 0 1 34.8505 242.4524)" class="st0 st1 st2"> </text>
<text transform="matrix(1 0 0 1 32.4189 222.6028)" class="st0 st1 st2">touch with</text>
<text transform="matrix(1 0 0 1 22.414 280.8968)" class="st0 st1 st2">View the </text>
<text transform="matrix(1 0 0 1 22.414 290.8216)" class="st0 st1 st2">User’s profile</text>
<text transform="matrix(1 0 0 1 22.3661 344.324)" class="st0 st1 st2">Message and </text>
<text transform="matrix(1 0 0 1 22.8622 356.2337)" class="st0 st1 st2">work out details</text>
<g>
	<g>
		<g>
			<polygon class="st0" points="41.1,21 41.1,53.1 40.2,53.1 41.2,54.8 42.2,53.1 41.3,53.1 41.3,21 			"/>
		</g>
	</g>
</g>
<g>
	<g>
		<g>
			<polygon class="st0" points="41.1,69.9 41.1,102 40.2,102 41.2,103.7 42.2,102 41.3,102 41.3,69.9 			"/>
		</g>
	</g>
</g>
<g>
	<g>
		<g>
			<polygon class="st0" points="41.1,140 41.1,180.6 40.2,180.6 41.2,182.3 42.2,180.6 41.3,180.6 41.3,140 			"/>
		</g>
	</g>
</g>
<g>
	<g>
		<g>
			<polygon class="st0" points="41.1,231.8 41.1,268 40.2,268 41.2,269.7 42.2,268 41.3,268 41.3,231.8 			"/>
		</g>
	</g>
</g>
<g>
	<g>
		<g>
			<polygon class="st0" points="41.1,297.8 41.1,329.9 40.2,329.9 41.2,331.6 42.2,329.9 41.3,329.9 41.3,297.8 			"/>
		</g>
	</g>
</g>
</svg>
