<?xml version="1.0" encoding="utf-8"?>
<!-- Generator: Adobe Illustrator 22.1.0, SVG Export Plug-In . SVG Version: 6.00 Build 0)  -->
<svg version="1.1" id="Layer_1" xmlns="http://www.w3.org/2000/svg" xmlns:xlink="http://www.w3.org/1999/xlink" x="0px" y="0px"
	 viewBox="0 0 90.4 364.5" style="enable-background:new 0 0 90.4 364.5;" xml:space="preserve">
<style type="text/css">
	.st0{fill:#020202;}
	.st1{font-family:'Avenir-Book';}
	.st2{font-size:4.3504px;}
	.st3{font-size:9.6025px;}
</style>
<g>
	<g>
		<g>
			<polygon class="st0" points="39.5,20.4 39.5,39 38.8,39 39.5,40.2 40.3,39 39.7,39 39.7,20.4 			"/>
		</g>
	</g>
</g>
<g>
	<g>
		<g>
			<polygon class="st0" points="39.5,56.3 39.5,74.9 38.8,74.9 39.5,76.1 40.3,74.9 39.7,74.9 39.7,56.3 			"/>
		</g>
	</g>
</g>
<g>
	<g>
		<g>
			<polygon class="st0" points="39.5,94.9 39.5,113.5 38.8,113.5 39.5,114.7 40.3,113.5 39.7,113.5 39.7,94.9 			"/>
		</g>
	</g>
</g>
<g>
	<g>
		<g>
			<polygon class="st0" points="39.5,139.7 39.5,158.3 38.8,158.3 39.5,159.5 40.3,158.3 39.7,158.3 39.7,139.7 			"/>
		</g>
	</g>
</g>
<g>
	<g>
		<g>
			<polygon class="st0" points="39.5,181 39.5,199.6 38.8,199.6 39.5,200.8 40.3,199.6 39.7,199.6 39.7,181 			"/>
		</g>
	</g>
</g>
<g>
	<g>
		<g>
			<polygon class="st0" points="39.5,234.8 39.5,253.4 38.8,253.4 39.5,254.6 40.3,253.4 39.7,253.4 39.7,234.8 			"/>
		</g>
	</g>
</g>
<g>
	<g>
		<g>
			<polygon class="st0" points="39.5,286.8 39.5,305.4 38.8,305.4 39.5,306.6 40.3,305.4 39.7,305.4 39.7,286.8 			"/>
		</g>
	</g>
</g>
<g>
	<g>
		<g>
			<polygon class="st0" points="39.5,322.7 39.5,341.3 38.8,341.3 39.5,342.5 40.3,341.3 39.7,341.3 39.7,322.7 			"/>
		</g>
	</g>
</g>
<text transform="matrix(1 0 0 1 20.0112 49.2637)" class="st0 st1 st2">Select destination </text>
<text transform="matrix(1 0 0 1 29.1733 90.3672)" class="st0 st1 st2">View itenarary</text>
<text transform="matrix(1 0 0 1 36.3256 132.0528)" class="st0 st1 st2">Book</text>
<text transform="matrix(1 0 0 1 29.6723 175.0352)" class="st0 st1 st2">Review details</text>
<text transform="matrix(1 0 0 1 22.9975 214.5049)" class="st0 st1 st2">choose to change</text>
<text transform="matrix(1 0 0 1 22.9975 220.7413)" class="st0 st1 st2">hotel</text>
<text transform="matrix(1 0 0 1 16.6254 268.9717)" class="st0 st1 st2">view details/reviews </text>
<text transform="matrix(1 0 0 1 16.6254 275.2071)" class="st0 st1 st2">of hotels</text>
<text transform="matrix(1 0 0 1 28.8578 317.7061)" class="st0 st1 st2">Pick new hotel</text>
<text transform="matrix(1 0 0 1 12.3168 352.8946)" class="st0 st1 st2">Confirm and proceed </text>
<text transform="matrix(1 0 0 1 56.9062 352.7872)" class="st0 st1 st2">to payment</text>
<text transform="matrix(1 0 0 1 28.8393 13.3243)" class="st0 st1 st3">Login</text>
</svg>
