<?xml version="1.0" encoding="utf-8"?>
<!-- Generator: Adobe Illustrator 22.1.0, SVG Export Plug-In . SVG Version: 6.00 Build 0)  -->
<svg version="1.1" id="Layer_1" xmlns="http://www.w3.org/2000/svg" xmlns:xlink="http://www.w3.org/1999/xlink" x="0px" y="0px"
	 viewBox="0 0 1080 1080" style="enable-background:new 0 0 1080 1080;" xml:space="preserve">
<style type="text/css">
	.st0{fill:#010101;}
	.st1{font-family:'FreightTextProBook-Regular';}
	.st2{font-size:31.6505px;}
</style>
<text transform="matrix(1 0 0 1 502.7402 86.0625)" class="st0 st1 st2">Login</text>
<text transform="matrix(1 0 0 1 420.0215 210.1909)" class="st0 st1 st2">Select destination </text>
<text transform="matrix(1 0 0 1 435.5972 357.9429)"><tspan x="0" y="0" class="st0 st1 st2">View list of </tspan><tspan x="0" y="38" class="st0 st1 st2">fellow travellers</tspan><tspan x="0" y="76" class="st0 st1 st2">in the region</tspan></text>
<text transform="matrix(1 0 0 1 435.0596 588.4395)"><tspan x="0" y="0" class="st0 st1 st2">Choose a  </tspan><tspan x="0" y="38" class="st0 st1 st2">person to get </tspan><tspan x="0" y="76" class="st0 st1 st2">in</tspan><tspan x="25.6" y="76" class="st0 st1 st2"> </tspan><tspan x="32.2" y="76" class="st0 st1 st2">touch with</tspan></text>
<text transform="matrix(1 0 0 1 435.5972 797.9121)"><tspan x="0" y="0" class="st0 st1 st2">View the </tspan><tspan x="0" y="38" class="st0 st1 st2">User’s profile</tspan></text>
<text transform="matrix(1 0 0 1 435.502 961.7285)"><tspan x="0" y="0" class="st0 st1 st2">Message and </tspan><tspan x="0" y="38" class="st0 st1 st2">work out details</tspan></text>
<g>
	<g>
		<g>
			<polygon class="st0" points="533.2,108.1 533.2,172.8 531.5,172.8 533.5,176.2 535.4,172.8 533.7,172.8 533.7,108.1 			"/>
		</g>
	</g>
</g>
<g>
	<g>
		<g>
			<polygon class="st0" points="533.2,236.8 533.2,301.5 531.5,301.5 533.5,304.9 535.4,301.5 533.7,301.5 533.7,236.8 			"/>
		</g>
	</g>
</g>
<g>
	<g>
		<g>
			<polygon class="st0" points="533.2,458 533.2,539.8 531.5,539.8 533.5,543.2 535.4,539.8 533.7,539.8 533.7,458 			"/>
		</g>
	</g>
</g>
<g>
	<g>
		<g>
			<polygon class="st0" points="533.2,685 533.2,757.9 531.5,757.9 533.5,761.3 535.4,757.9 533.7,757.9 533.7,685 			"/>
		</g>
	</g>
</g>
<g>
	<g>
		<g>
			<polygon class="st0" points="533.2,863.9 533.2,928.6 531.5,928.6 533.5,932 535.4,928.6 533.7,928.6 533.7,863.9 			"/>
		</g>
	</g>
</g>
</svg>
