<svg id="Layer_1" data-name="Layer 1" xmlns="http://www.w3.org/2000/svg" viewBox="0 0 792 294.02"><defs><style>.cls-1{font-size:11.43px;}.cls-1,.cls-2{fill:#010101;font-family:FreightTextProBook-Regular, FreightText Pro;}.cls-2{font-size:12.54px;}.cls-3{letter-spacing:-0.02em;}.cls-4{letter-spacing:0em;}.cls-5{letter-spacing:0em;}.cls-6{letter-spacing:0em;}.cls-7{letter-spacing:-0.01em;}.cls-8{letter-spacing:0.01em;}.cls-9{letter-spacing:0em;}.cls-10{letter-spacing:0em;}.cls-11{letter-spacing:-0.01em;}.cls-12,.cls-13{fill:none;stroke:#010101;stroke-miterlimit:10;}.cls-12{stroke-width:0.25px;}.cls-13{stroke-width:0.15px;}</style></defs><title>Artboard 3</title><text class="cls-1" transform="translate(352.7 18.06) scale(1.01 1)">Login</text><text class="cls-2" transform="translate(125.9 113.41)">Landscape</text><text class="cls-2" transform="translate(289.48 113.41)"><tspan class="cls-3">P</tspan><tspan x="6.77" y="0">ort</tspan><tspan class="cls-4" x="22.21" y="0">r</tspan><tspan x="26.84" y="0">ait</tspan></text><text class="cls-2" transform="translate(325.48 255.41)">Vi<tspan class="cls-5" x="11.04" y="0">e</tspan><tspan x="16.8" y="0">w artwork &amp;</tspan><tspan x="0" y="15.05" xml:space="preserve"> explo</tspan><tspan class="cls-6" x="30.98" y="15.05">r</tspan><tspan x="35.6" y="15.05">e information</tspan></text><text class="cls-2" transform="translate(120.48 255.41)">S<tspan class="cls-7" x="6.32" y="0">a</tspan><tspan x="11.79" y="0">ve out information</tspan></text><text class="cls-2" transform="translate(573.98 255.41)">Vi<tspan class="cls-5" x="11.04" y="0">e</tspan><tspan x="16.8" y="0">w painting in </tspan><tspan x="0" y="15.05">studio</tspan></text><text class="cls-2" transform="translate(459.48 113.41)">Still-Life</text><text class="cls-2" transform="translate(582.48 113.41)"><tspan class="cls-8">O</tspan><tspan x="9.34" y="0">th</tspan><tspan class="cls-9" x="20.27" y="0">e</tspan><tspan x="26.04" y="0">r g</tspan><tspan class="cls-5" x="39.29" y="0">e</tspan><tspan x="45.06" y="0">n</tspan><tspan class="cls-4" x="51.86" y="0">r</tspan><tspan class="cls-10" x="56.48" y="0">e</tspan><tspan class="cls-11" x="62.22" y="0">s</tspan><tspan x="67.18" y="0">...</tspan></text><polyline class="cls-12" points="159 63.98 618 63.98 618 94.93"/><polyline class="cls-12" points="158 146.93 618 146.93 618 117.65"/><polyline class="cls-12" points="159 218.98 618 218.98 618 243.15"/><line class="cls-12" x1="158.09" y1="120.84" x2="158.09" y2="143.84"/><line class="cls-12" x1="311.45" y1="120.84" x2="311.45" y2="143.84"/><line class="cls-12" x1="368.18" y1="218.84" x2="368.18" y2="241.84"/><line class="cls-12" x1="158.18" y1="218.84" x2="158.18" y2="241.84"/><line class="cls-12" x1="158.14" y1="62.98" x2="158.14" y2="93.93"/><line class="cls-12" x1="311.08" y1="64.98" x2="311.08" y2="95.93"/><line class="cls-12" x1="474.08" y1="63.98" x2="474.08" y2="94.93"/><line class="cls-13" x1="368.08" y1="29.98" x2="368.08" y2="60.93"/><line class="cls-13" x1="368.08" y1="146.98" x2="368.08" y2="177.93"/><line class="cls-12" x1="368.08" y1="201.98" x2="368.08" y2="217.65"/><line class="cls-12" x1="474.18" y1="119.84" x2="474.18" y2="142.84"/><text class="cls-2" transform="translate(329.48 193.41)">Select Artworks</text></svg>