<?xml version="1.0" encoding="utf-8"?>
<!-- Generator: Adobe Illustrator 22.1.0, SVG Export Plug-In . SVG Version: 6.00 Build 0)  -->
<svg version="1.1" id="Layer_1" xmlns="http://www.w3.org/2000/svg" xmlns:xlink="http://www.w3.org/1999/xlink" x="0px" y="0px"
	 viewBox="0 0 303.5 364.5" style="enable-background:new 0 0 303.5 364.5;" xml:space="preserve">
<style type="text/css">
	.st0{fill:#010101;}
	.st1{font-family:'Avenir-Book';}
	.st2{font-size:12px;}
</style>
<text transform="matrix(1 0 0 1 6.6545 49.4297)" class="st0 st1 st2">Login</text>
<text transform="matrix(1 0 0 1 6.6536 103.8706)" class="st0 st1 st2">Select genre of painting</text>
<text transform="matrix(1 0 0 1 199.1484 208.7478)"><tspan x="0" y="0" class="st0 st1 st2">access menu by </tspan><tspan x="0" y="14.4" class="st0 st1 st2">clicking with </tspan><tspan x="0" y="28.8" class="st0 st1 st2">left controller</tspan></text>
<text transform="matrix(1 0 0 1 199.1484 312.9016)"><tspan x="0" y="0" class="st0 st1 st2">Select option to  </tspan><tspan x="0" y="14.4" class="st0 st1 st2">change settings</tspan></text>
<text transform="matrix(1 0 0 1 6.6541 156.9851)" class="st0 st1 st2">Select painting</text>
<text transform="matrix(1 0 0 1 6.6548 208.748)" class="st0 st1 st2">hover over painting</text>
<text transform="matrix(1 0 0 1 6.6543 259.9238)" class="st0 st1 st2">Find clickable area</text>
<text transform="matrix(1 0 0 1 6.6541 312.9014)"><tspan x="0" y="0" class="st0 st1 st2">Explore artists’s studio </tspan><tspan x="0" y="14.4" class="st0 st1 st2">environment</tspan></text>
<g>
	<g>
		<g>
			<polygon class="st0" points="236,254.2 236,292.4 234.2,292.4 236.2,295.8 238.2,292.4 236.4,292.4 236.4,254.2 			"/>
		</g>
	</g>
</g>
<g>
	<g>
		<g>
			<polygon class="st0" points="23.6,267.9 23.6,298.1 21.9,298.1 23.8,301.5 25.8,298.1 24.1,298.1 24.1,267.9 			"/>
		</g>
	</g>
</g>
<g>
	<g>
		<g>
			<polygon class="st0" points="23.3,163.2 23.3,193.3 21.6,193.3 23.6,196.8 25.5,193.3 23.8,193.3 23.8,163.2 			"/>
		</g>
	</g>
</g>
<g>
	<g>
		<g>
			<polygon class="st0" points="114,207.2 186.9,207.2 186.9,209 190.3,207 186.9,205 186.9,206.8 114,206.8 			"/>
		</g>
	</g>
</g>
<g>
	<g>
		<g>
			<polygon class="st0" points="193.1,309.7 138.8,309.7 138.8,308 135.4,310 138.8,312 138.8,310.2 193.1,310.2 			"/>
		</g>
	</g>
</g>
<g>
	<g>
		<g>
			<polygon class="st0" points="23.3,112.6 23.3,142.8 21.6,142.8 23.6,146.2 25.5,142.8 23.8,142.8 23.8,112.6 			"/>
		</g>
	</g>
</g>
<g>
	<g>
		<g>
			<polygon class="st0" points="23.3,59.3 23.3,89.4 21.6,89.4 23.6,92.8 25.5,89.4 23.8,89.4 23.8,59.3 			"/>
		</g>
	</g>
</g>
<g>
	<g>
		<g>
			<polygon class="st0" points="23.3,214.2 23.3,244.3 21.6,244.3 23.6,247.7 25.5,244.3 23.8,244.3 23.8,214.2 			"/>
		</g>
	</g>
</g>
</svg>
